<svg width="64" height="64" viewBox="0 0 64 64" xmlns="http://www.w3.org/2000/svg">
  <defs>
    <linearGradient id="stream1" x1="0%" y1="0%" x2="100%" y2="0%">
      <stop offset="0%" style="stop-color:#8b5cf6;stop-opacity:0.9" />
      <stop offset="100%" style="stop-color:#7c3aed;stop-opacity:0.9" />
    </linearGradient>
    <linearGradient id="stream2" x1="0%" y1="0%" x2="100%" y2="0%">
      <stop offset="0%" style="stop-color:#06b6d4;stop-opacity:0.9" />
      <stop offset="100%" style="stop-color:#0891b2;stop-opacity:0.9" />
    </linearGradient>
    <linearGradient id="stream3" x1="0%" y1="0%" x2="100%" y2="0%">
      <stop offset="0%" style="stop-color:#10b981;stop-opacity:0.9" />
      <stop offset="100%" style="stop-color:#059669;stop-opacity:0.9" />
    </linearGradient>
    <linearGradient id="stream4" x1="0%" y1="0%" x2="100%" y2="0%">
      <stop offset="0%" style="stop-color:#f59e0b;stop-opacity:0.9" />
      <stop offset="100%" style="stop-color:#d97706;stop-opacity:0.9" />
    </linearGradient>
    <linearGradient id="stream5" x1="0%" y1="0%" x2="100%" y2="0%">
      <stop offset="0%" style="stop-color:#ec4899;stop-opacity:0.9" />
      <stop offset="100%" style="stop-color:#db2777;stop-opacity:0.9" />
    </linearGradient>
  </defs>

  <!-- Background with subtle gradient -->
  <defs>
    <linearGradient id="bg" x1="0%" y1="0%" x2="0%" y2="100%">
      <stop offset="0%" style="stop-color:#ffffff;stop-opacity:1" />
      <stop offset="100%" style="stop-color:#f8fafc;stop-opacity:1" />
    </linearGradient>
  </defs>
  <rect width="64" height="64" fill="url(#bg)" rx="12"/>

  <!-- Stream layers with more organic curves -->
  <!-- Bottom stream (purple) -->
  <path d="M 2 50 Q 12 46 22 48 Q 32 50 42 47 Q 52 44 62 46 L 62 58 Q 52 60 42 58 Q 32 56 22 58 Q 12 60 2 58 Z" fill="url(#stream1)"/>

  <!-- Second stream (cyan) -->
  <path d="M 2 42 Q 12 38 22 40 Q 32 42 42 39 Q 52 36 62 38 L 62 46 Q 52 44 42 47 Q 32 50 22 48 Q 12 46 2 50 Z" fill="url(#stream2)"/>

  <!-- Third stream (emerald) -->
  <path d="M 2 34 Q 12 30 22 32 Q 32 34 42 31 Q 52 28 62 30 L 62 38 Q 52 36 42 39 Q 32 42 22 40 Q 12 38 2 42 Z" fill="url(#stream3)"/>

  <!-- Fourth stream (amber) -->
  <path d="M 2 26 Q 12 22 22 24 Q 32 26 42 23 Q 52 20 62 22 L 62 30 Q 52 28 42 31 Q 32 34 22 32 Q 12 30 2 34 Z" fill="url(#stream4)"/>

  <!-- Top stream (pink) -->
  <path d="M 2 18 Q 12 14 22 16 Q 32 18 42 15 Q 52 12 62 14 L 62 22 Q 52 20 42 23 Q 32 26 22 24 Q 12 22 2 26 Z" fill="url(#stream5)"/>

  <!-- Subtle border -->
  <rect width="64" height="64" fill="none" stroke="#e2e8f0" stroke-width="0.5" rx="12"/>
</svg>